<svg xmlns="http://www.w3.org/2000/svg" width="512" height="512" viewBox="0 0 512 512">
  <defs>
    <linearGradient id="app-logo-bg" x1="15%" y1="85%" x2="85%" y2="15%">
      <stop offset="0.0%" stop-color="#0029c1"/>
      <stop offset="29.0%" stop-color="#3973ff"/>
      <stop offset="100.0%" stop-color="#0029c1"/>
    </linearGradient>
    <clipPath id="app-logo-clip"><path d="M256,0 L296.1,0.04 L312.71,0.15 L325.43,0.35 L336.15,0.62 L345.57,0.96 L354.06,1.39 L361.85,1.89 L369.07,2.47 L375.83,3.13 L382.19,3.87 L388.21,4.68 L393.93,5.57 L399.38,6.54 L404.59,7.6 L409.58,8.73 L414.37,9.94 L418.97,11.23 L423.39,12.6 L427.66,14.05 L431.77,15.59 L435.73,17.21 L439.55,18.91 L443.25,20.7 L446.81,22.57 L450.26,24.52 L453.58,26.57 L456.8,28.7 L459.9,30.92 L462.9,33.23 L465.79,35.64 L468.58,38.14 L471.27,40.73 L473.86,43.42 L476.36,46.21 L478.77,49.1 L481.08,52.1 L483.3,55.2 L485.43,58.42 L487.48,61.74 L489.43,65.19 L491.3,68.75 L493.09,72.45 L494.79,76.27 L496.41,80.23 L497.95,84.34 L499.4,88.61 L500.77,93.03 L502.06,97.63 L503.27,102.42 L504.4,107.41 L505.46,112.62 L506.43,118.07 L507.32,123.79 L508.13,129.81 L508.87,136.17 L509.53,142.93 L510.11,150.15 L510.61,157.94 L511.04,166.43 L511.38,175.85 L511.65,186.57 L511.85,199.29 L511.96,215.9 L512,256 L512,256 L511.96,296.1 L511.85,312.71 L511.65,325.43 L511.38,336.15 L511.04,345.57 L510.61,354.06 L510.11,361.85 L509.53,369.07 L508.87,375.83 L508.13,382.19 L507.32,388.21 L506.43,393.93 L505.46,399.38 L504.4,404.59 L503.27,409.58 L502.06,414.37 L500.77,418.97 L499.4,423.39 L497.95,427.66 L496.41,431.77 L494.79,435.73 L493.09,439.55 L491.3,443.25 L489.43,446.81 L487.48,450.26 L485.43,453.58 L483.3,456.8 L481.08,459.9 L478.77,462.9 L476.36,465.79 L473.86,468.58 L471.27,471.27 L468.58,473.86 L465.79,476.36 L462.9,478.77 L459.9,481.08 L456.8,483.3 L453.58,485.43 L450.26,487.48 L446.81,489.43 L443.25,491.3 L439.55,493.09 L435.73,494.79 L431.77,496.41 L427.66,497.95 L423.39,499.4 L418.97,500.77 L414.37,502.06 L409.58,503.27 L404.59,504.4 L399.38,505.46 L393.93,506.43 L388.21,507.32 L382.19,508.13 L375.83,508.87 L369.07,509.53 L361.85,510.11 L354.06,510.61 L345.57,511.04 L336.15,511.38 L325.43,511.65 L312.71,511.85 L296.1,511.96 L256,512 L256,512 L215.9,511.96 L199.29,511.85 L186.57,511.65 L175.85,511.38 L166.43,511.04 L157.94,510.61 L150.15,510.11 L142.93,509.53 L136.17,508.87 L129.81,508.13 L123.79,507.32 L118.07,506.43 L112.62,505.46 L107.41,504.4 L102.42,503.27 L97.63,502.06 L93.03,500.77 L88.61,499.4 L84.34,497.95 L80.23,496.41 L76.27,494.79 L72.45,493.09 L68.75,491.3 L65.19,489.43 L61.74,487.48 L58.42,485.43 L55.2,483.3 L52.1,481.08 L49.1,478.77 L46.21,476.36 L43.42,473.86 L40.73,471.27 L38.14,468.58 L35.64,465.79 L33.23,462.9 L30.92,459.9 L28.7,456.8 L26.57,453.58 L24.52,450.26 L22.57,446.81 L20.7,443.25 L18.91,439.55 L17.21,435.73 L15.59,431.77 L14.05,427.66 L12.6,423.39 L11.23,418.97 L9.94,414.37 L8.73,409.58 L7.6,404.59 L6.54,399.38 L5.57,393.93 L4.68,388.21 L3.87,382.19 L3.13,375.83 L2.47,369.07 L1.89,361.85 L1.39,354.06 L0.96,345.57 L0.62,336.15 L0.35,325.43 L0.15,312.71 L0.04,296.1 L0,256 L0,256 L0.04,215.9 L0.15,199.29 L0.35,186.57 L0.62,175.85 L0.96,166.43 L1.39,157.94 L1.89,150.15 L2.47,142.93 L3.13,136.17 L3.87,129.81 L4.68,123.79 L5.57,118.07 L6.54,112.62 L7.6,107.41 L8.73,102.42 L9.94,97.63 L11.23,93.03 L12.6,88.61 L14.05,84.34 L15.59,80.23 L17.21,76.27 L18.91,72.45 L20.7,68.75 L22.57,65.19 L24.52,61.74 L26.57,58.42 L28.7,55.2 L30.92,52.1 L33.23,49.1 L35.64,46.21 L38.14,43.42 L40.73,40.73 L43.42,38.14 L46.21,35.64 L49.1,33.23 L52.1,30.92 L55.2,28.7 L58.42,26.57 L61.74,24.52 L65.19,22.57 L68.75,20.7 L72.45,18.91 L76.27,17.21 L80.23,15.59 L84.34,14.05 L88.61,12.6 L93.03,11.23 L97.63,9.94 L102.42,8.73 L107.41,7.6 L112.62,6.54 L118.07,5.57 L123.79,4.68 L129.81,3.87 L136.17,3.13 L142.93,2.47 L150.15,1.89 L157.94,1.39 L166.43,0.96 L175.85,0.62 L186.57,0.35 L199.29,0.15 L215.9,0.04 L256,0 Z"/></clipPath>
  </defs>
  <rect width="512" height="512" fill="url(#app-logo-bg)" clip-path="url(#app-logo-clip)"/>
  <g transform="translate(51.20, 51.20) scale(3.2000) translate(0, 0)">
    <path fill="#FCC11A" d="M29.53 45.25c-7.14 9.17-7.02 25.48 2.11 33.55c10.36 9.17 24.93 9.08 34.1.64c10.99-10.11 10.36-26.95.64-36.48c-9.77-9.59-27.23-10.09-36.85 2.29"/><path fill="#FEE269" d="M40.99 42.1c-2.82-1.25-5.91 2.15-7.26 4.48s-2.6 6.9.27 8.06s4.93-.81 6.99-4.21s3.22-6.89 0-8.33"/><path fill="#FFA722" d="M48.34 29.31c-.68 1.28-.45 2.26.9 2.59c1.36.32 9.82 1.7 10.53 1.74c1.03.06 1.42-.71 1.29-1.62c-.13-.9-2.2-13.57-2.39-14.74c-.19-1.16-1.42-2.33-2.59-.78c-1.15 1.57-7.23 11.84-7.74 12.81m21.91 8.79c-1.33.41-1.29 1.23-.58 2.26s5.62 8.53 6.08 9.05s1.23.65 1.87-.13s8.72-12.09 9.31-12.8c.97-1.16.39-2.39-1.1-2c-1.14.3-14.74 3.37-15.58 3.62M19.84 72.49c.9-1.49 2.07-1.1 2.91.32c.58.97 5.43 7.5 5.88 8.21s.65 2.07-.78 2.39c-1.42.32-12.99 3.36-14.8 3.68s-2.84-1.1-1.68-2.65c.68-.9 7.95-11.11 8.47-11.95m-2.46-11.25c1.65.74 2.43.47 2.78-.71c.45-1.55 1.81-8.66 1.87-10.28c.04-1.05-.39-2.07-2-1.81c-1.62.26-13.25 1.87-14.74 2.39c-1.73.6-1.6 2.5-.45 3.1c1.36.72 11.38 6.79 12.54 7.31m20.1-27.14c.93-.74.65-1.81-.19-2.39s-11.22-8.09-12.54-9.11c-1.16-.9-2.59-.58-2.2 1.49c.28 1.48 3.59 14.48 3.81 15.38c.26 1.03 1.03 1.55 1.94.9s8.21-5.5 9.18-6.27"/><path fill="#E2EBEE" d="M109.13 81.18s1.45-28.45-21.58-34s-29.74 16.79-29.74 16.79s-7.68-1.79-14.8 4.13c-5.59 4.65-6.38 11.63-6.38 11.63s-7.35-1.12-13.47 4.82c-4.43 4.3-4 9.82-4 9.82l8.92 7.84l90.65-2.45l4.77-5.12s.76-5.68-4.54-9.95c-5.3-4.28-9.83-3.51-9.83-3.51"/><path fill="#B9CED3" d="M40.64 92.23s3.61 4.08 15.06 3.81s14.46-3.27 14.46-3.27s5.02 5.27 19.53 4.15s18.68-4.18 18.68-4.18s3.54 2.53 8.02 2.6c4.47.07 7.11-.71 7.11-.71s-.47 3.56-2.03 5.84s-4.16 4.02-8.27 3.99c-4.12-.03-16.64.08-29.35.06s-49.03.19-54.4-.04c-4.09-.17-7.06-2.58-8.43-4.62c-2.19-3.26-1.83-6.7-1.83-6.7s4.12 3.23 9.68 2.99c7.6-.32 11.77-3.92 11.77-3.92"/>
  </g>
</svg>